<svg xmlns="http://www.w3.org/2000/svg" xmlns:xlink="http://www.w3.org/1999/xlink" contentStyleType="text/css" height="1732px" preserveAspectRatio="none" style="width:1160px;height:1732px;background:#FAFAFA;" version="1.1" viewBox="0 0 1160 1732" width="1160px" zoomAndPan="magnify"><defs/><g><rect fill="#FAFAFA" height="1732" style="stroke:none;stroke-width:1.0;" width="1160" x="0" y="0"/><text fill="#000000" font-family="Segoe UI" font-size="14" font-weight="bold" lengthAdjust="spacing" textLength="237.229" x="454.6819" y="24.9659">Re-BOOT &#8212; Firmware Update FSM</text><text fill="#7F8C8D" font-family="Segoe UI" font-size="11" font-weight="bold" lengthAdjust="spacing" textLength="405.4462" x="370.5733" y="40.8268">Host-side bootloader protocol  |  src: init/fsm_table.c  &amp;  init/fsm_actions.c</text><g id="INIT"><rect fill="#EBF5FB" height="50" rx="12.5" ry="12.5" style="stroke:#2980B9;stroke-width:0.5;" width="133.5398" x="666" y="142.0498"/><line style="stroke:#2980B9;stroke-width:0.5;" x1="666" x2="799.5398" y1="165.6698" y2="165.6698"/><text fill="#5D6D7E" font-family="Segoe UI" font-size="10" font-weight="bold" lengthAdjust="spacing" textLength="37.11" x="714.2149" y="157.7398">ST_INIT</text><text fill="#5D6D7E" font-family="Segoe UI" font-size="10" font-weight="bold" lengthAdjust="spacing" textLength="113.5398" x="671" y="181.3598">Idle &#8212; FSM entry point</text></g><g id="RESET_WAIT"><rect fill="#EBF5FB" height="60.86" rx="12.5" ry="12.5" style="stroke:#2980B9;stroke-width:0.5;" width="132.6299" x="666.5" y="298.0498"/><line style="stroke:#2980B9;stroke-width:0.5;" x1="666.5" x2="799.1299" y1="321.6698" y2="321.6698"/><text fill="#5D6D7E" font-family="Segoe UI" font-size="10" font-weight="bold" lengthAdjust="spacing" textLength="75.2599" x="695.185" y="313.7398">ST_SEND_RESET</text><text fill="#5D6D7E" font-family="Segoe UI" font-size="10" font-weight="bold" lengthAdjust="spacing" textLength="112.6299" x="671.5" y="337.3598">Waiting for target info</text><text fill="#5D6D7E" font-family="Segoe UI" font-size="10" font-weight="bold" lengthAdjust="spacing" textLength="107.9799" x="671.5" y="350.9798">after CMD_RESET_REQ</text></g><g id="PIPELINE"><rect fill="#EBF5FB" height="60.86" rx="12.5" ry="12.5" style="stroke:#2980B9;stroke-width:0.5;" width="152.9998" x="255.5" y="531.0498"/><line style="stroke:#2980B9;stroke-width:0.5;" x1="255.5" x2="408.4998" y1="554.6698" y2="554.6698"/><text fill="#5D6D7E" font-family="Segoe UI" font-size="10" font-weight="bold" lengthAdjust="spacing" textLength="96.0599" x="283.9699" y="546.7398">ST_BUILD_PIPELINE</text><text fill="#5D6D7E" font-family="Segoe UI" font-size="10" font-weight="bold" lengthAdjust="spacing" textLength="101.6399" x="260.5" y="570.3598">Organise HEX image</text><text fill="#5D6D7E" font-family="Segoe UI" font-size="10" font-weight="bold" lengthAdjust="spacing" textLength="132.9998" x="260.5" y="583.9798">into sector-aligned buffers</text></g><g id="SEND"><rect fill="#EBF5FB" height="60.86" rx="12.5" ry="12.5" style="stroke:#2980B9;stroke-width:0.5;" width="168.3998" x="110" y="778.0498"/><line style="stroke:#2980B9;stroke-width:0.5;" x1="110" x2="278.3998" y1="801.6698" y2="801.6698"/><text fill="#5D6D7E" font-family="Segoe UI" font-size="10" font-weight="bold" lengthAdjust="spacing" textLength="92.8799" x="147.7599" y="793.7398">ST_SEND_WINDOW</text><text fill="#5D6D7E" font-family="Segoe UI" font-size="10" font-weight="bold" lengthAdjust="spacing" textLength="112.0699" x="115" y="817.3598">Segment transmission</text><text fill="#5D6D7E" font-family="Segoe UI" font-size="10" font-weight="bold" lengthAdjust="spacing" textLength="148.3998" x="115" y="830.9798">(loops until sector exhausted)</text></g><g id="VERIFY"><rect fill="#EBF5FB" height="60.86" rx="12.5" ry="12.5" style="stroke:#2980B9;stroke-width:0.5;" width="164.3298" x="322" y="1033.0498"/><line style="stroke:#2980B9;stroke-width:0.5;" x1="322" x2="486.3298" y1="1056.6698" y2="1056.6698"/><text fill="#5D6D7E" font-family="Segoe UI" font-size="10" font-weight="bold" lengthAdjust="spacing" textLength="49.7299" x="379.2999" y="1048.7398">ST_VERIFY</text><text fill="#5D6D7E" font-family="Segoe UI" font-size="10" font-weight="bold" lengthAdjust="spacing" textLength="113.6099" x="327" y="1072.3598">Sector CRC verification</text><text fill="#5D6D7E" font-family="Segoe UI" font-size="10" font-weight="bold" lengthAdjust="spacing" textLength="144.3298" x="327" y="1085.9798">Waiting for flash write result</text></g><g id="NEXT"><rect fill="#EBF5FB" height="60.86" rx="12.5" ry="12.5" style="stroke:#2980B9;stroke-width:0.5;" width="130.8199" x="154.5" y="1244.0498"/><line style="stroke:#2980B9;stroke-width:0.5;" x1="154.5" x2="285.3199" y1="1267.6698" y2="1267.6698"/><text fill="#5D6D7E" font-family="Segoe UI" font-size="10" font-weight="bold" lengthAdjust="spacing" textLength="83.5399" x="178.14" y="1259.7398">ST_NEXT_SECTOR</text><text fill="#5D6D7E" font-family="Segoe UI" font-size="10" font-weight="bold" lengthAdjust="spacing" textLength="110.8199" x="159.5" y="1283.3598">Advance sector cursor</text><text fill="#5D6D7E" font-family="Segoe UI" font-size="10" font-weight="bold" lengthAdjust="spacing" textLength="93.8298" x="159.5" y="1296.9798">Reset retry / offset</text></g><g id="JUMP"><rect fill="#EBF5FB" height="50" rx="12.5" ry="12.5" style="stroke:#2980B9;stroke-width:0.5;" width="148.4298" x="146" y="1411.0498"/><line style="stroke:#2980B9;stroke-width:0.5;" x1="146" x2="294.4298" y1="1434.6698" y2="1434.6698"/><text fill="#5D6D7E" font-family="Segoe UI" font-size="10" font-weight="bold" lengthAdjust="spacing" textLength="65.56" x="187.4349" y="1426.7398">ST_APP_JUMP</text><text fill="#5D6D7E" font-family="Segoe UI" font-size="10" font-weight="bold" lengthAdjust="spacing" textLength="128.4298" x="151" y="1450.3598">Waiting for app jump ACK</text></g><g id="DONE"><rect fill="#EBF5FB" height="60.86" rx="12.5" ry="12.5" style="stroke:#2980B9;stroke-width:0.5;" width="155.3598" x="174.5" y="1582.0498"/><line style="stroke:#2980B9;stroke-width:0.5;" x1="174.5" x2="329.8598" y1="1605.6698" y2="1605.6698"/><text fill="#5D6D7E" font-family="Segoe UI" font-size="10" font-weight="bold" lengthAdjust="spacing" textLength="44.5" x="229.9299" y="1597.7398">ST_DONE</text><text fill="#5D6D7E" font-family="Segoe UI" font-size="10" font-weight="bold" lengthAdjust="spacing" textLength="135.3598" x="179.5" y="1621.3598">Firmware update complete</text><text fill="#5D6D7E" font-family="Segoe UI" font-size="10" font-weight="bold" lengthAdjust="spacing" textLength="79.6099" x="179.5" y="1634.9798">fsm_running = 0</text></g><g id="ABORT"><rect fill="#FADBD8" height="60.86" rx="12.5" ry="12.5" style="stroke:#2980B9;stroke-width:0.5;" width="99.6099" x="365" y="1244.0498"/><line style="stroke:#2980B9;stroke-width:0.5;" x1="365" x2="464.6099" y1="1267.6698" y2="1267.6698"/><text fill="#5D6D7E" font-family="Segoe UI" font-size="10" font-weight="bold" lengthAdjust="spacing" textLength="33.97" x="397.82" y="1259.7398">ABORT</text><text fill="#5D6D7E" font-family="Segoe UI" font-size="10" font-weight="bold" lengthAdjust="spacing" textLength="79.6099" x="370" y="1283.3598">fsm_running = 0</text><text fill="#5D6D7E" font-family="Segoe UI" font-size="10" font-weight="bold" lengthAdjust="spacing" textLength="76.0999" x="370" y="1296.9798">Main loop exits</text></g><ellipse cx="733" cy="71.0498" fill="#222222" rx="10" ry="10" style="stroke:#222222;stroke-width:1.0;"/><ellipse cx="349" cy="1715.0498" fill="none" rx="11" ry="11" style="stroke:#222222;stroke-width:1.0;"/><ellipse cx="349" cy="1715.0498" fill="#222222" rx="6" ry="6" style="stroke:#222222;stroke-width:1.0;"/><g id="elem_GMN29"><path d="M713,749.0498 L713,804.5498 L278.06,808.5498 L713,812.5498 L713,868.0097 A0,0 0 0 0 713,868.0097 L926.6563,868.0097 A0,0 0 0 0 926.6563,868.0097 L926.6563,759.0498 L916.6563,749.0498 L713,749.0498 A0,0 0 0 0 713,749.0498 " fill="#FEF9E7" style="stroke:#F39C12;stroke-width:0.5;"/><path d="M916.6563,749.0498 L916.6563,759.0498 L926.6563,759.0498 L916.6563,749.0498 " fill="#FEF9E7" style="stroke:#F39C12;stroke-width:0.5;"/><text fill="#7D6608" font-family="Segoe UI" font-size="10" font-weight="bold" lengthAdjust="spacing" textLength="132.2998" x="719" y="764.7398">Segment loop (inner cycle)</text><text fill="#7D6608" font-family="Segoe UI" font-size="10" lengthAdjust="spacing" textLength="192.6563" x="719" y="778.3598">&#9484;&#9472;&#9472;&#9472;&#9472;&#9472;&#9472;&#9472;&#9472;&#9472;&#9472;&#9472;&#9472;&#9472;&#9472;&#9472;&#9472;&#9472;&#9472;&#9472;&#9472;&#9472;&#9472;&#9472;&#9472;&#9472;&#9472;&#9472;&#9472;&#9472;&#9472;&#9488;</text><text fill="#7D6608" font-family="Segoe UI" font-size="10" lengthAdjust="spacing" textLength="175.6713" x="719" y="791.9798">&#9474; HOST  TX &#9654;  CMD_PIPELINE_DATA &#9474;</text><text fill="#7D6608" font-family="Segoe UI" font-size="10" lengthAdjust="spacing" textLength="161.2113" x="719" y="805.5998">&#9474; TARGET RX &#9664;  RESP_SEG_ACK    &#9474;</text><text fill="#7D6608" font-family="Segoe UI" font-size="10" lengthAdjust="spacing" textLength="139.9008" x="719" y="819.2197">&#9474;   (repeat per segment)        &#9474;</text><text fill="#7D6608" font-family="Segoe UI" font-size="10" lengthAdjust="spacing" textLength="192.6563" x="719" y="832.8397">&#9492;&#9472;&#9472;&#9472;&#9472;&#9472;&#9472;&#9472;&#9472;&#9472;&#9472;&#9472;&#9472;&#9472;&#9472;&#9472;&#9472;&#9472;&#9472;&#9472;&#9472;&#9472;&#9472;&#9472;&#9472;&#9472;&#9472;&#9472;&#9472;&#9472;&#9472;&#9496;</text><text fill="#7D6608" font-family="Segoe UI" font-size="10" lengthAdjust="spacing" textLength="181.6199" x="719" y="846.4597">When pipeline_next_segment() returns</text><text fill="#7D6608" font-family="Segoe UI" font-size="10" lengthAdjust="spacing" textLength="180.4999" x="719" y="860.0797">len &lt; 0 &#8594; dispatches EVT_SECTOR_END</text></g><g id="elem_GMN32"><path d="M521.5,1004.0498 L521.5,1059.5498 L486.38,1063.5498 L521.5,1067.5498 L521.5,1123.0097 A0,0 0 0 0 521.5,1123.0097 L742.4407,1123.0097 A0,0 0 0 0 742.4407,1123.0097 L742.4407,1014.0498 L732.4407,1004.0498 L521.5,1004.0498 A0,0 0 0 0 521.5,1004.0498 " fill="#FEF9E7" style="stroke:#F39C12;stroke-width:0.5;"/><path d="M732.4407,1004.0498 L732.4407,1014.0498 L742.4407,1014.0498 L732.4407,1004.0498 " fill="#FEF9E7" style="stroke:#F39C12;stroke-width:0.5;"/><text fill="#7D6608" font-family="Segoe UI" font-size="10" font-weight="bold" lengthAdjust="spacing" textLength="88.1599" x="527.5" y="1019.7398">Sector write cycle</text><text fill="#7D6608" font-family="Segoe UI" font-size="10" lengthAdjust="spacing" textLength="192.6563" x="527.5" y="1033.3598">&#9484;&#9472;&#9472;&#9472;&#9472;&#9472;&#9472;&#9472;&#9472;&#9472;&#9472;&#9472;&#9472;&#9472;&#9472;&#9472;&#9472;&#9472;&#9472;&#9472;&#9472;&#9472;&#9472;&#9472;&#9472;&#9472;&#9472;&#9472;&#9472;&#9472;&#9472;&#9488;</text><text fill="#7D6608" font-family="Segoe UI" font-size="10" lengthAdjust="spacing" textLength="179.4513" x="527.5" y="1046.9798">&#9474; HOST  TX &#9654;  CMD_PIPELINE_VERIFY&#9474;</text><text fill="#7D6608" font-family="Segoe UI" font-size="10" lengthAdjust="spacing" textLength="158.9909" x="527.5" y="1060.5998">&#9474; TARGET flashes buffered data  &#9474;</text><text fill="#7D6608" font-family="Segoe UI" font-size="10" lengthAdjust="spacing" textLength="180.9413" x="527.5" y="1074.2197">&#9474; TARGET RX &#9664;  RESP_CRC_ACK    &#9474;  OK</text><text fill="#7D6608" font-family="Segoe UI" font-size="10" lengthAdjust="spacing" textLength="199.9407" x="527.5" y="1087.8397">&#9474;          or RESP_CRC_NACK    &#9474;  FAIL &#8594; retry</text><text fill="#7D6608" font-family="Segoe UI" font-size="10" lengthAdjust="spacing" textLength="192.6563" x="527.5" y="1101.4597">&#9492;&#9472;&#9472;&#9472;&#9472;&#9472;&#9472;&#9472;&#9472;&#9472;&#9472;&#9472;&#9472;&#9472;&#9472;&#9472;&#9472;&#9472;&#9472;&#9472;&#9472;&#9472;&#9472;&#9472;&#9472;&#9472;&#9472;&#9472;&#9472;&#9472;&#9472;&#9496;</text><text fill="#7D6608" font-family="Segoe UI" font-size="10" lengthAdjust="spacing" textLength="143.2299" x="527.5" y="1115.0797">MAX_RETRY = 2  (app_config.h)</text></g><g id="elem_GMN35"><path d="M6,495.0498 L6,627.6297 A0,0 0 0 0 6,627.6297 L219.6563,627.6297 A0,0 0 0 0 219.6563,627.6297 L219.6563,565.5498 L255.25,561.5498 L219.6563,557.5498 L219.6563,505.0498 L209.6563,495.0498 L6,495.0498 A0,0 0 0 0 6,495.0498 " fill="#FEF9E7" style="stroke:#F39C12;stroke-width:0.5;"/><path d="M209.6563,495.0498 L209.6563,505.0498 L219.6563,505.0498 L209.6563,495.0498 " fill="#FEF9E7" style="stroke:#F39C12;stroke-width:0.5;"/><text fill="#7D6608" font-family="Segoe UI" font-size="10" font-weight="bold" lengthAdjust="spacing" textLength="159.8798" x="12" y="510.7398">Pipeline build (once per session)</text><text fill="#7D6608" font-family="Segoe UI" font-size="10" lengthAdjust="spacing" textLength="192.6563" x="12" y="524.3598">&#9484;&#9472;&#9472;&#9472;&#9472;&#9472;&#9472;&#9472;&#9472;&#9472;&#9472;&#9472;&#9472;&#9472;&#9472;&#9472;&#9472;&#9472;&#9472;&#9472;&#9472;&#9472;&#9472;&#9472;&#9472;&#9472;&#9472;&#9472;&#9472;&#9472;&#9472;&#9488;</text><text fill="#7D6608" font-family="Segoe UI" font-size="10" lengthAdjust="spacing" textLength="122.6208" x="12" y="537.9798">&#9474; pipeline_build()              &#9474;</text><text fill="#7D6608" font-family="Segoe UI" font-size="10" lengthAdjust="spacing" textLength="129.8408" x="12" y="551.5998">&#9474; sector_count  = N             &#9474;</text><text fill="#7D6608" font-family="Segoe UI" font-size="10" lengthAdjust="spacing" textLength="150.0009" x="12" y="565.2197">&#9474; total_segments&#8776; N &#215; &#8968;S/seg&#8969; &#9474;</text><text fill="#7D6608" font-family="Segoe UI" font-size="10" lengthAdjust="spacing" textLength="192.6563" x="12" y="578.8397">&#9492;&#9472;&#9472;&#9472;&#9472;&#9472;&#9472;&#9472;&#9472;&#9472;&#9472;&#9472;&#9472;&#9472;&#9472;&#9472;&#9472;&#9472;&#9472;&#9472;&#9472;&#9472;&#9472;&#9472;&#9472;&#9472;&#9472;&#9472;&#9472;&#9472;&#9472;&#9496;</text><text fill="#7D6608" font-family="Segoe UI" font-size="10" lengthAdjust="spacing" textLength="123.5999" x="12" y="592.4597">sector_size / segment_size</text><text fill="#7D6608" font-family="Segoe UI" font-size="10" lengthAdjust="spacing" textLength="98.0599" x="12" y="606.0797">reported by target in</text><text fill="#7D6608" font-family="Segoe UI" font-size="10" lengthAdjust="spacing" textLength="92.76" x="12" y="619.6997">RESP_TARGET_INFO</text></g><!--link *start* to INIT--><g id="link_*start*_INIT"><path d="M733,81.0598 C733,94.9398 733,116.0198 733,135.8898 " fill="none" id="*start*-to-INIT" style="stroke:#2C3E50;stroke-width:1.0;"/><polygon fill="#2C3E50" points="733,141.8898,737,132.8898,733,136.8898,729,132.8898,733,141.8898" style="stroke:#2C3E50;stroke-width:1.0;"/></g><!--link INIT to RESET_WAIT--><g id="link_INIT_RESET_WAIT"><path d="M733,192.2698 C733,220.5998 733,261.4698 733,291.9298 " fill="none" id="INIT-to-RESET_WAIT" style="stroke:#2C3E50;stroke-width:1.0;"/><polygon fill="#2C3E50" points="733,297.9298,737,288.9298,733,292.9298,729,288.9298,733,297.9298" style="stroke:#2C3E50;stroke-width:1.0;"/><text fill="#2C3E50" font-family="Segoe UI" font-size="11" font-weight="bold" lengthAdjust="spacing" textLength="57.8486" x="779.2759" y="234.8087">EVT_START</text><text fill="#2C3E50" font-family="Segoe UI" font-size="11" font-style="italic" lengthAdjust="spacing" textLength="70.3115" x="773.0445" y="249.7906">act_send_reset</text><text fill="#2C3E50" font-family="Segoe UI" font-size="11" lengthAdjust="spacing" textLength="148.4004" x="734" y="264.7725">TX &#9654; CMD_RESET_REQ (0x10)</text></g><!--link RESET_WAIT to PIPELINE--><g id="link_RESET_WAIT_PIPELINE"><path d="M681.4,359.2798 C604.4,403.6298 465.4891,483.655 388.5991,527.945 " fill="none" id="RESET_WAIT-to-PIPELINE" style="stroke:#2C3E50;stroke-width:1.0;"/><polygon fill="#2C3E50" points="383.4,530.9398,393.1953,529.9137,387.7326,528.4441,389.2022,522.9815,383.4,530.9398" style="stroke:#2C3E50;stroke-width:1.0;"/><text fill="#2C3E50" font-family="Segoe UI" font-size="11" font-weight="bold" lengthAdjust="spacing" textLength="98.4493" x="690.0306" y="401.8087">EVT_TARGET_INFO</text><text fill="#2C3E50" font-family="Segoe UI" font-size="11" font-style="italic" lengthAdjust="spacing" textLength="72.2585" x="703.126" y="416.7906">act_target_info</text><text fill="#2C3E50" font-family="Segoe UI" font-size="11" lengthAdjust="spacing" textLength="163.6573" x="657.4266" y="431.7725">RX &#9664; RESP_TARGET_INFO (0x30)</text><text fill="#2C3E50" font-family="Segoe UI" font-size="11" lengthAdjust="spacing" textLength="226.5104" x="626" y="446.7544">parse: flash_addr, sector_size, segment_size</text><text fill="#2C3E50" font-family="Segoe UI" font-size="11" lengthAdjust="spacing" textLength="122.1321" x="678.1891" y="461.7363">addr-range check: PASS</text></g><!--link PIPELINE to SEND--><g id="link_PIPELINE_SEND"><path d="M315.35,592.0998 C288.83,639.1898 240.2148,725.5122 213.6548,772.6622 " fill="none" id="PIPELINE-to-SEND" style="stroke:#2C3E50;stroke-width:1.0;"/><polygon fill="#2C3E50" points="210.71,777.8898,218.6123,772.0115,213.164,773.5334,211.6421,768.0852,210.71,777.8898" style="stroke:#2C3E50;stroke-width:1.0;"/><text fill="#2C3E50" font-family="Segoe UI" font-size="11" font-weight="bold" lengthAdjust="spacing" textLength="57.8486" x="294.5844" y="670.8087">EVT_START</text><text fill="#2C3E50" font-family="Segoe UI" font-size="11" lengthAdjust="spacing" textLength="30.1948" x="355.293" y="670.8087">(auto)</text><text fill="#2C3E50" font-family="Segoe UI" font-size="11" font-style="italic" lengthAdjust="spacing" textLength="86.9544" x="296.5589" y="685.7906">act_build_pipeline</text><text fill="#2C3E50" font-family="Segoe UI" font-size="11" lengthAdjust="spacing" textLength="78.7374" x="300.6673" y="700.7725">pipeline_build()</text><text fill="#2C3E50" font-family="Segoe UI" font-size="11" lengthAdjust="spacing" textLength="128.0721" x="276" y="715.7544">compute total_segments</text></g><!--link SEND to SEND--><g id="link_SEND_SEND"><path d="M278.23,797.5098 C298.22,798.3998 313,802.0798 313,808.5498 C313,815.0198 304.2141,818.4329 284.2241,819.3229 " fill="none" id="SEND-to-SEND" style="stroke:#2C3E50;stroke-width:1.0;"/><polygon fill="#2C3E50" points="278.23,819.5898,287.399,823.1855,283.2251,819.3674,287.0432,815.1935,278.23,819.5898" style="stroke:#2C3E50;stroke-width:1.0;"/><text fill="#2C3E50" font-family="Segoe UI" font-size="11" font-weight="bold" lengthAdjust="spacing" textLength="57.8486" x="375.5508" y="790.8087">EVT_START</text><text fill="#2C3E50" font-family="Segoe UI" font-size="11" font-style="italic" lengthAdjust="spacing" textLength="84.2264" x="362.3619" y="805.7906">act_send_window</text><text fill="#2C3E50" font-family="Segoe UI" font-size="11" lengthAdjust="spacing" textLength="170.9502" x="319" y="820.7725">TX &#9654; CMD_PIPELINE_DATA (0x11)</text><text fill="#2C3E50" font-family="Segoe UI" font-size="11" lengthAdjust="spacing" textLength="124.0791" x="342.4356" y="835.7544">[first segment of sector]</text></g><!--link SEND to SEND--><g id="link_SEND_SEND"><path d="M278.17,789.9798 C369.5,781.0898 495,787.2798 495,808.5498 C495,829.8198 375.4718,836.5911 284.1418,827.7011 " fill="none" id="SEND-to-SEND-1" style="stroke:#2C3E50;stroke-width:1.0;"/><polygon fill="#2C3E50" points="278.17,827.1198,286.7401,831.9729,283.1465,827.6042,287.5152,824.0106,278.17,827.1198" style="stroke:#2C3E50;stroke-width:1.0;"/><text fill="#2C3E50" font-family="Segoe UI" font-size="11" font-weight="bold" lengthAdjust="spacing" textLength="70.8065" x="551.0719" y="783.3087">EVT_SEG_ACK</text><text fill="#2C3E50" font-family="Segoe UI" font-size="11" font-style="italic" lengthAdjust="spacing" textLength="84.2264" x="544.3619" y="798.2906">act_send_window</text><text fill="#2C3E50" font-family="Segoe UI" font-size="11" lengthAdjust="spacing" textLength="137.9945" x="517.4779" y="813.2725">RX &#9664; RESP_SEG_ACK (0x31)</text><text fill="#2C3E50" font-family="Segoe UI" font-size="11" lengthAdjust="spacing" textLength="170.9502" x="501" y="828.2544">TX &#9654; CMD_PIPELINE_DATA (0x11)</text><text fill="#2C3E50" font-family="Segoe UI" font-size="11" lengthAdjust="spacing" textLength="78.3854" x="547.2824" y="843.2363">[next segment]</text></g><!--link SEND to VERIFY--><g id="link_SEND_VERIFY"><path d="M278.29,833.2298 C312.25,846.8898 348.79,867.5698 372,898.0498 C402.05,937.5198 406.361,991.3805 405.821,1026.9705 " fill="none" id="SEND-to-VERIFY" style="stroke:#2C3E50;stroke-width:1.0;"/><polygon fill="#2C3E50" points="405.73,1032.9698,409.8661,1024.0315,405.8059,1027.9704,401.867,1023.9102,405.73,1032.9698" style="stroke:#2C3E50;stroke-width:1.0;"/><text fill="#2C3E50" font-family="Segoe UI" font-size="11" font-weight="bold" lengthAdjust="spacing" textLength="93.5763" x="444.1959" y="918.3087">EVT_SECTOR_END</text><text fill="#2C3E50" font-family="Segoe UI" font-size="11" font-style="italic" lengthAdjust="spacing" textLength="64.3935" x="458.7873" y="933.2906">act_crc_verify</text><text fill="#2C3E50" font-family="Segoe UI" font-size="11" lengthAdjust="spacing" textLength="104.6422" x="438.663" y="948.2725">pipeline_sector_crc()</text><text fill="#2C3E50" font-family="Segoe UI" font-size="11" lengthAdjust="spacing" textLength="177.9682" x="402" y="963.2544">TX &#9654; CMD_PIPELINE_VERIFY (0x13)</text></g><!--link VERIFY to SEND--><g id="link_VERIFY_SEND"><path d="M348,1032.9198 C329.38,1023.3798 308.44,1012.9698 289,1004.0498 C257.12,989.4198 237.42,1001.8298 216,974.0498 C186,935.1498 185.6192,881.0716 189.0992,845.2916 " fill="none" id="VERIFY-to-SEND" style="stroke:#2C3E50;stroke-width:1.0;"/><polygon fill="#2C3E50" points="189.68,839.3198,184.8275,847.8903,189.196,844.2963,192.79,848.6648,189.68,839.3198" style="stroke:#2C3E50;stroke-width:1.0;"/><text fill="#2C3E50" font-family="Segoe UI" font-size="11" font-weight="bold" lengthAdjust="spacing" textLength="80.8384" x="250.0495" y="910.8087">EVT_CRC_NACK</text><text fill="#2C3E50" font-family="Segoe UI" font-size="11" font-style="italic" lengthAdjust="spacing" textLength="60.9615" x="259.9879" y="925.7906">act_crc_nack</text><text fill="#2C3E50" font-family="Segoe UI" font-size="11" lengthAdjust="spacing" textLength="146.9374" x="217" y="940.7725">RX &#9664; RESP_CRC_NACK (0x34)</text><text fill="#2C3E50" font-family="Segoe UI" font-size="11" lengthAdjust="spacing" textLength="85.5134" x="247.712" y="955.7544">offset=0, retry++</text><text fill="#2C3E50" font-family="Segoe UI" font-size="11" lengthAdjust="spacing" textLength="104.8512" x="238.0431" y="970.7363">[retry &lt; max_retries]</text></g><!--link VERIFY to NEXT--><g id="link_VERIFY_NEXT"><path d="M335,1094.1798 C308.39,1108.5798 279.68,1128.2098 260,1153.0498 C238.99,1179.5698 229.8687,1211.7076 225.0787,1237.9176 " fill="none" id="VERIFY-to-NEXT" style="stroke:#2C3E50;stroke-width:1.0;"/><polygon fill="#2C3E50" points="224,1243.8198,229.5528,1235.6855,224.8989,1238.9013,221.6832,1234.2473,224,1243.8198" style="stroke:#2C3E50;stroke-width:1.0;"/><text fill="#2C3E50" font-family="Segoe UI" font-size="11" font-weight="bold" lengthAdjust="spacing" textLength="66.0545" x="297.2615" y="1165.8087">EVT_CRC_OK</text><text fill="#2C3E50" font-family="Segoe UI" font-size="11" font-style="italic" lengthAdjust="spacing" textLength="73.8424" x="293.3675" y="1180.7906">act_next_sector</text><text fill="#2C3E50" font-family="Segoe UI" font-size="11" lengthAdjust="spacing" textLength="138.5775" x="261" y="1195.7725">RX &#9664; RESP_CRC_ACK (0x33)</text><text fill="#2C3E50" font-family="Segoe UI" font-size="11" lengthAdjust="spacing" textLength="130.789" x="264.8942" y="1210.7544">current_sector++, retry=0</text></g><!--link NEXT to SEND--><g id="link_NEXT_SEND"><path d="M212.14,1243.8298 C204.57,1213.6598 193.61,1165.4798 189,1123.0498 C188.51,1118.4998 185.16,944.7398 187,898.0498 C187.77,878.4898 188.9596,862.5354 190.5096,845.3954 " fill="none" id="NEXT-to-SEND" style="stroke:#2C3E50;stroke-width:1.0;"/><polygon fill="#2C3E50" points="191.05,839.4198,186.2557,848.023,190.5997,844.3995,194.2232,848.7435,191.05,839.4198" style="stroke:#2C3E50;stroke-width:1.0;"/><text fill="#2C3E50" font-family="Segoe UI" font-size="11" font-weight="bold" lengthAdjust="spacing" textLength="57.8486" x="218.4128" y="1053.3087">EVT_START</text><text fill="#2C3E50" font-family="Segoe UI" font-size="11" font-style="italic" lengthAdjust="spacing" textLength="84.2264" x="205.2239" y="1068.2906">act_send_window</text><text fill="#2C3E50" font-family="Segoe UI" font-size="11" lengthAdjust="spacing" textLength="114.6742" x="190" y="1083.2725">[more sectors remain]</text></g><!--link NEXT to JUMP--><g id="link_NEXT_JUMP"><path d="M220,1305.1798 C220,1335.7198 220,1376.7498 220,1405.0498 " fill="none" id="NEXT-to-JUMP" style="stroke:#2C3E50;stroke-width:1.0;"/><polygon fill="#2C3E50" points="220,1411.0498,224,1402.0498,220,1406.0498,216,1402.0498,220,1411.0498" style="stroke:#2C3E50;stroke-width:1.0;"/><text fill="#2C3E50" font-family="Segoe UI" font-size="11" font-weight="bold" lengthAdjust="spacing" textLength="132.934" x="228.5847" y="1347.8087">EVT_ALL_SECTORS_DONE</text><text fill="#2C3E50" font-family="Segoe UI" font-size="11" font-style="italic" lengthAdjust="spacing" textLength="67.7595" x="261.1719" y="1362.7906">act_app_jump</text><text fill="#2C3E50" font-family="Segoe UI" font-size="11" lengthAdjust="spacing" textLength="148.1034" x="221" y="1377.7725">TX &#9654; CMD_START_APP (0x14)</text></g><!--link JUMP to DONE--><g id="link_JUMP_DONE"><path d="M215.37,1461.3198 C211.79,1484.9298 208.71,1521.5998 217,1552.0498 C219.8,1562.3398 221.8089,1567.5214 227.2489,1576.6114 " fill="none" id="JUMP-to-DONE" style="stroke:#2C3E50;stroke-width:1.0;"/><polygon fill="#2C3E50" points="230.33,1581.7598,229.1406,1571.983,227.7624,1577.4694,222.276,1576.0912,230.33,1581.7598" style="stroke:#2C3E50;stroke-width:1.0;"/><text fill="#2C3E50" font-family="Segoe UI" font-size="11" font-weight="bold" lengthAdjust="spacing" textLength="72.0275" x="267.3514" y="1503.8087">EVT_APP_ACK</text><text fill="#2C3E50" font-family="Segoe UI" font-size="11" font-style="italic" lengthAdjust="spacing" textLength="43.6477" x="281.5413" y="1518.7906">act_done</text><text fill="#2C3E50" font-family="Segoe UI" font-size="11" lengthAdjust="spacing" textLength="170.7302" x="218" y="1533.7725">RX &#9664; RESP_APP_JUMP_ACK (0x37)</text><text fill="#2C3E50" font-family="Segoe UI" font-size="11" lengthAdjust="spacing" textLength="65.0535" x="270.8384" y="1548.7544">print banner</text></g><!--link DONE to *end*--><g id="link_DONE_*end*"><path d="M280.58,1643.1598 C301.59,1664.9298 324.4724,1688.6435 337.3624,1701.9935 " fill="none" id="DONE-to-*end*" style="stroke:#2C3E50;stroke-width:1.0;"/><polygon fill="#2C3E50" points="341.53,1706.3098,338.1561,1697.0569,338.057,1702.7128,332.401,1702.6137,341.53,1706.3098" style="stroke:#2C3E50;stroke-width:1.0;"/></g><!--link RESET_WAIT to ABORT--><g id="link_RESET_WAIT_ABORT"><path d="M799.62,354.0098 C877.83,387.5298 997,455.7998 997,560.5498 C997,560.5498 997,560.5498 997,1064.5498 C997,1177.1398 612.2345,1244.6558 471.0545,1265.6858 " fill="none" id="RESET_WAIT-to-ABORT" style="stroke:#2C3E50;stroke-width:1.0;"/><polygon fill="#2C3E50" points="465.12,1266.5698,474.6111,1269.2002,470.0654,1265.8331,473.4324,1261.2875,465.12,1266.5698" style="stroke:#2C3E50;stroke-width:1.0;"/><text fill="#2C3E50" font-family="Segoe UI" font-size="11" lengthAdjust="spacing" textLength="81.6304" x="1034.4812" y="798.3087">addr check FAIL</text><text fill="#2C3E50" font-family="Segoe UI" font-size="11" lengthAdjust="spacing" textLength="154.5929" x="998" y="813.2906">(NULL pkt / length mismatch /</text><text fill="#2C3E50" font-family="Segoe UI" font-size="11" lengthAdjust="spacing" textLength="120.7901" x="1014.9014" y="828.2725">hex_base &lt; APP_START)</text></g><!--link VERIFY to ABORT--><g id="link_VERIFY_ABORT"><path d="M405.55,1094.0498 C407.64,1133.7698 411.0239,1198.0581 413.1239,1237.8681 " fill="none" id="VERIFY-to-ABORT" style="stroke:#2C3E50;stroke-width:1.0;"/><polygon fill="#2C3E50" points="413.44,1243.8598,416.9604,1234.6616,413.1766,1238.8667,408.9715,1235.083,413.44,1243.8598" style="stroke:#2C3E50;stroke-width:1.0;"/><text fill="#2C3E50" font-family="Segoe UI" font-size="11" font-weight="bold" lengthAdjust="spacing" textLength="80.8384" x="427.0864" y="1173.3087">EVT_CRC_NACK</text><text fill="#2C3E50" font-family="Segoe UI" font-size="11" lengthAdjust="spacing" textLength="104.8512" x="415.08" y="1188.2906">[retry &#8805; max_retries]</text><text fill="#2C3E50" font-family="Segoe UI" font-size="11" lengthAdjust="spacing" textLength="111.0112" x="412" y="1203.2725">max retries exceeded</text></g><!--link ABORT to *end*--><g id="link_ABORT_*end*"><path d="M414.44,1305.2398 C413.09,1356.1198 408.48,1463.0998 393,1552.0498 C382.76,1610.9098 362.6104,1673.6921 354.2304,1698.6421 " fill="none" id="ABORT-to-*end*" style="stroke:#2C3E50;stroke-width:1.0;"/><polygon fill="#2C3E50" points="352.32,1704.3298,358.9774,1697.0717,353.912,1699.59,351.3937,1694.5246,352.32,1704.3298" style="stroke:#2C3E50;stroke-width:1.0;"/></g><!--SRC=[pLZlRjD84F_kfnXHwKWEIfAMqZOAbPp4WHnjaai21L5aRUnDuiFnHkiDRU-FXEx32IG-d4xek1UuLxWNk3V9azpis4xif0Ma4oW6LRlPyVncv__u9ipVlzw4_yPDWDvBBu02zDIbpt6_APA5ADQKIJQ10NDUZgIO1MvD-4B2LiFK_r8KuPYvujmBHZ1aViXJ9ouVifcl6Y9GBJRXSAF7HuB3u-QDgubwteySIZj6chbYYiDF1k1JNH4bUhQiQcElKOqeX7IvJ9yInSxXGR5wI1GQPlKSAKhcpjvEOq51viXGL8Nlqh4ffJXVux2rKzkrzefBYiLragTKoXvcMAHVxoacrqL42QkrmnfHM5a5BFImVxUs6r6OIablC5CyWxIrLxzNtxVMAHQ2beh6Bsdj1-8ZojzgM8r3Q_yQnMyrTWzhQCkhbRwrNxzthtYmL7XQLR4ODpSfJlkUsgW0LIGFG6LmrENRrNQx3_FNxw7XoSavanXZKrS7JgDtKYaCZZHXY2ekbqf75KTRehortpYe7TIF7efGROUUos4WXF85Gpl2L0eba0xWPu1GEcNm0ayLXk74LcpWypiEm3Um_94voXD1UCUf58ZxKQMWuOuC7hWGYRfPvkpfj19kKiAbF7UZrxURhMR_1h0Gz8A2ZnPbQBgOayZ8lHFWWPANC1LUe2Xa5w_th5RTxbezAs92A_lKZ5cbjcKuPPwYj8s1YKbdn1LQT2XMoTXGeKlKJcAs-FVxB6JrSVEuRdUQ7UkusR88DjaGw69JXhOSiS0BEJoqde8tOIEUFSVh20YveuJSPhut2hWBWzbmo6LunJLFcwrw-vG0zPx0Q546h3GJr14eoO9mueKX-kVoDESBCGrX5YZFZ-60NupPB5JSpMUHdbZTPkCPWKHBWecN6eZUhdLhy8fBR-WvJ4LO2vAqdeS-2yTmBZtaBdc8XI-BrhAUwilL-kqkGUez0TAY3ARxYWKEJuHsPZ8KSddSvI5QKNBj70KGmo5kim1cfsD_z_YaGzprWhZJ8YifcqxXXzba2cRjKPP5lHrRMI_eTLgKbzbd5cKVHqocFbTyIQ6JXPm5WGQv3yKKNxFQxaOkIolTPzIhzGDY7_so_lRov8HX6wMDYcRqLBXnvUCXQlCIEaoDDqYkvz- -WEtj8yelXa5PHczJmHy_PLrch2Vec7spszS5vIoeU4UOzUqGCxmjjTTL2Xx-t7yAyp__oMOBo1KlIiMyOQGuQw15tASX4E61fRDWevq1YXAKhHDKXDH5f0-ljRITz4iQRBUOFzCTJCZBKS3Pp7NbxJXeR5sQz8Oo1EtE0asmZRbYX5uxvixBCdJCNiym5Z9gWIbxmFLQWHoRAP5Vo3oOURvhJxqfzxs0Hs8dk-WmXyGwIh0H0oKKy-rOhD0m26qTzdCCWjqujkHh5aakOzVDlabMAI7-yw4dGvNe0vD6hASNdoc2zS365F5n8TB6YbyWGsdyJmiOy8k5V6cfuWnxjLGwXTf8cH7CaOvDQVfonHgnQ-1vxXgHOZ0jr2xwShpLOb3klKe8B0fsEwiPVPKOR5qpcZxHpAxsZ9cKvA94V-lMxIYptoyQ1c7-V-TuFX4oAIOXSfzW7dsHuavruMhkvl5nhEKULOGC4AOxMnUFDHSacNGH8aNUHKKIXCQY4d4D5XQjLHzpHH9IQHKcvMsXntsT2YJs5JZ91W6NXa4u6X3ptuQLYIuLxWqh4obFNtMsZAUtLYsaWot0iV5gHsyb5hgB5eewbVl5sCDltKBNZBgO2apOXQtN7WytpLxcG4Y5ZPQ5KxqakstIJB5IRgDUAJ6SBdXHgOE6sJm-2tAjnyV7C7sfx-FpOAJ6W7tpX2bd38MpOCmlx073phq2EiOeZhDfCCt_8yuHstN-zk-CPSy2t46ymoxEuTpbhc54N3SpN3l9cEppaPvqS_fxINw3PAJlDz8RZQciw-YDFXaaqn5rp3bFvqLmBXsVv-El1VFtxxwaPByJnA_miDr3ZudBmnKT0DB4b5671t4IoJOI02b2W9paKyuKJF5ISTEGJtmoeNl_9M_t5qASZda0Y-uYhleaIowllNmcWn39CD0me8em_-qFSBrmggCDtJ_RmT1N56rAOyMWKV0b9gM1C9eioPOROyf8p3LRKcUEbutcUnpqSMPay0cR9oqInDPkFrhOFNvG2TaQav3gD4UAfWJqTTpWn7oA4r2_-mpdrHrqJTqNEI8OUgCxu_ogNNq-9BCcYeiCsucT26XWW9pGut_as_HLuok7xEhyaktObiPB6cenmpo3jszTGvUTUkPlto3blnzW_kvDhu2_pj-z_Nf1cveFiGYc1qGynAo2nLv_ZxfSVYqpO6q0NLhrFm00]--></g></svg>